<svg width="96" height="96" viewBox="0 0 96 96" fill="none" xmlns="http://www.w3.org/2000/svg">
<path d="M48 96C74.5097 96 96 74.5097 96 48C96 21.4903 74.5097 0 48 0C21.4903 0 0 21.4903 0 48C0 74.5097 21.4903 96 48 96Z" fill="#1D2743"/>
<path d="M32.1 28.0803H27V33.1803H32.1V28.0803Z" fill="white"/>
<path d="M44.4003 28.2605H39.3003V33.3605H44.4003V28.2605Z" fill="white"/>
<path d="M32.1 40.3806H27V45.4806H32.1V40.3806Z" fill="white"/>
<path d="M32.1 52.6802H27V57.7802H32.1V52.6802Z" fill="white"/>
<path d="M44.4003 40.5601H39.3003V45.6601H44.4003V40.5601Z" fill="white"/>
<path d="M56.6999 28.4106H51.5999V33.5106H56.6999V28.4106Z" fill="white"/>
<path d="M69.0001 28.5601H63.9001V33.6601H69.0001V28.5601Z" fill="white"/>
<path d="M41.8501 68.8202C42.5625 68.8202 43.1401 68.2427 43.1401 67.5302C43.1401 66.8178 42.5625 66.2402 41.8501 66.2402C41.1376 66.2402 40.5601 66.8178 40.5601 67.5302C40.5601 68.2427 41.1376 68.8202 41.8501 68.8202Z" fill="white"/>
<path d="M41.8501 56.5207C42.5625 56.5207 43.1401 55.9431 43.1401 55.2307C43.1401 54.5182 42.5625 53.9407 41.8501 53.9407C41.1376 53.9407 40.5601 54.5182 40.5601 55.2307C40.5601 55.9431 41.1376 56.5207 41.8501 56.5207Z" fill="white"/>
<path d="M54.1503 68.8202C54.8628 68.8202 55.4403 68.2427 55.4403 67.5302C55.4403 66.8178 54.8628 66.2402 54.1503 66.2402C53.4379 66.2402 52.8604 66.8178 52.8604 67.5302C52.8604 68.2427 53.4379 68.8202 54.1503 68.8202Z" fill="white"/>
<path d="M54.1503 56.5207C54.8628 56.5207 55.4403 55.9431 55.4403 55.2307C55.4403 54.5182 54.8628 53.9407 54.1503 53.9407C53.4379 53.9407 52.8604 54.5182 52.8604 55.2307C52.8604 55.9431 53.4379 56.5207 54.1503 56.5207Z" fill="white"/>
<path d="M54.1503 44.4006C54.8628 44.4006 55.4403 43.823 55.4403 43.1106C55.4403 42.3981 54.8628 41.8206 54.1503 41.8206C53.4379 41.8206 52.8604 42.3981 52.8604 43.1106C52.8604 43.823 53.4379 44.4006 54.1503 44.4006Z" fill="white"/>
<path d="M66.4499 68.8202C67.1624 68.8202 67.7399 68.2427 67.7399 67.5302C67.7399 66.8178 67.1624 66.2402 66.4499 66.2402C65.7375 66.2402 65.1599 66.8178 65.1599 67.5302C65.1599 68.2427 65.7375 68.8202 66.4499 68.8202Z" fill="white"/>
<path d="M66.4499 56.5207C67.1624 56.5207 67.7399 55.9431 67.7399 55.2307C67.7399 54.5182 67.1624 53.9407 66.4499 53.9407C65.7375 53.9407 65.1599 54.5182 65.1599 55.2307C65.1599 55.9431 65.7375 56.5207 66.4499 56.5207Z" fill="white"/>
<path d="M66.4499 44.4006C67.1624 44.4006 67.7399 43.823 67.7399 43.1106C67.7399 42.3981 67.1624 41.8206 66.4499 41.8206C65.7375 41.8206 65.1599 42.3981 65.1599 43.1106C65.1599 43.823 65.7375 44.4006 66.4499 44.4006Z" fill="white"/>
<path d="M29.5498 68.8202C30.2622 68.8202 30.8398 68.2427 30.8398 67.5302C30.8398 66.8178 30.2622 66.2402 29.5498 66.2402C28.8373 66.2402 28.2598 66.8178 28.2598 67.5302C28.2598 68.2427 28.8373 68.8202 29.5498 68.8202Z" fill="white"/>
</svg>
